<svg width="1237.3250732421875" height="693.3500366210938" class="scatterD3" id="scatterD3-svg-explor_var" xmlns="http://www.w3.org/2000/svg" version="1.1"><style>.scatterD3 {font: 11px Open Sans, Droid Sans, Helvetica, Verdana, sans-serif;}.scatterD3 .axis line, .axis path { stroke: #000; fill: none; shape-rendering: CrispEdges;} .scatterD3 .axis .tick line { stroke: #ddd;} .scatterD3 .axis text { fill: #000; }</style><g class="root" transform="translate(30,5)" width="668.3500366210938" height="668.3500366210938" style="cursor: move;"><rect class="viewport" width="668.3500366210938" height="668.3500366210938" style="fill: rgb(255, 255, 255);"></rect><g class="x axis" transform="translate(0,668.3500366210938)" fill="none" font-size="10" font-family="sans-serif" text-anchor="middle" style="font-size: 100%;"><path class="domain" stroke="currentColor" d="M0,-668.3500366210938V0H668.3500366210938V-668.3500366210938"></path><g class="tick" opacity="1" transform="translate(25.82154930175077,0)"><line stroke="currentColor" y2="-668.3500366210938"></line><text fill="currentColor" y="3" dy="0.71em">−1</text></g><g class="tick" opacity="1" transform="translate(80.777671800035,0)"><line stroke="currentColor" y2="-668.3500366210938"></line><text fill="currentColor" y="3" dy="0.71em">−0.5</text></g><g class="tick" opacity="1" transform="translate(135.7337942983192,0)"><line stroke="currentColor" y2="-668.3500366210938"></line><text fill="currentColor" y="3" dy="0.71em">0</text></g><g class="tick" opacity="1" transform="translate(190.68991679660343,0)"><line stroke="currentColor" y2="-668.3500366210938"></line><text fill="currentColor" y="3" dy="0.71em">0.5</text></g><g class="tick" opacity="1" transform="translate(245.64603929488766,0)"><line stroke="currentColor" y2="-668.3500366210938"></line><text fill="currentColor" y="3" dy="0.71em">1</text></g><g class="tick" opacity="1" transform="translate(300.60216179317183,0)"><line stroke="currentColor" y2="-668.3500366210938"></line><text fill="currentColor" y="3" dy="0.71em">1.5</text></g><g class="tick" opacity="1" transform="translate(355.55828429145606,0)"><line stroke="currentColor" y2="-668.3500366210938"></line><text fill="currentColor" y="3" dy="0.71em">2</text></g><g class="tick" opacity="1" transform="translate(410.5144067897403,0)"><line stroke="currentColor" y2="-668.3500366210938"></line><text fill="currentColor" y="3" dy="0.71em">2.5</text></g><g class="tick" opacity="1" transform="translate(465.47052928802447,0)"><line stroke="currentColor" y2="-668.3500366210938"></line><text fill="currentColor" y="3" dy="0.71em">3</text></g><g class="tick" opacity="1" transform="translate(520.4266517863086,0)"><line stroke="currentColor" y2="-668.3500366210938"></line><text fill="currentColor" y="3" dy="0.71em">3.5</text></g><g class="tick" opacity="1" transform="translate(575.382774284593,0)"><line stroke="currentColor" y2="-668.3500366210938"></line><text fill="currentColor" y="3" dy="0.71em">4</text></g><g class="tick" opacity="1" transform="translate(630.3388967828771,0)"><line stroke="currentColor" y2="-668.3500366210938"></line><text fill="currentColor" y="3" dy="0.71em">4.5</text></g></g><g class="y axis" fill="none" font-size="10" font-family="sans-serif" text-anchor="end" style="font-size: 100%;"><path class="domain" stroke="currentColor" d="M668.3500366210938,668.3500366210938H0V0H668.3500366210938"></path><g class="tick" opacity="1" transform="translate(0,661.3168936112069)"><line stroke="currentColor" x2="668.3500366210938"></line><text fill="currentColor" x="-3" dy="0.32em">−3.5</text></g><g class="tick" opacity="1" transform="translate(0,606.3607711129226)"><line stroke="currentColor" x2="668.3500366210938"></line><text fill="currentColor" x="-3" dy="0.32em">−3</text></g><g class="tick" opacity="1" transform="translate(0,551.4046486146384)"><line stroke="currentColor" x2="668.3500366210938"></line><text fill="currentColor" x="-3" dy="0.32em">−2.5</text></g><g class="tick" opacity="1" transform="translate(0,496.44852611635423)"><line stroke="currentColor" x2="668.3500366210938"></line><text fill="currentColor" x="-3" dy="0.32em">−2</text></g><g class="tick" opacity="1" transform="translate(0,441.49240361806994)"><line stroke="currentColor" x2="668.3500366210938"></line><text fill="currentColor" x="-3" dy="0.32em">−1.5</text></g><g class="tick" opacity="1" transform="translate(0,386.53628111978577)"><line stroke="currentColor" x2="668.3500366210938"></line><text fill="currentColor" x="-3" dy="0.32em">−1</text></g><g class="tick" opacity="1" transform="translate(0,331.58015862150154)"><line stroke="currentColor" x2="668.3500366210938"></line><text fill="currentColor" x="-3" dy="0.32em">−0.5</text></g><g class="tick" opacity="1" transform="translate(0,276.62403612321737)"><line stroke="currentColor" x2="668.3500366210938"></line><text fill="currentColor" x="-3" dy="0.32em">0</text></g><g class="tick" opacity="1" transform="translate(0,221.66791362493308)"><line stroke="currentColor" x2="668.3500366210938"></line><text fill="currentColor" x="-3" dy="0.32em">0.5</text></g><g class="tick" opacity="1" transform="translate(0,166.71179112664888)"><line stroke="currentColor" x2="668.3500366210938"></line><text fill="currentColor" x="-3" dy="0.32em">1</text></g><g class="tick" opacity="1" transform="translate(0,111.75566862836462)"><line stroke="currentColor" x2="668.3500366210938"></line><text fill="currentColor" x="-3" dy="0.32em">1.5</text></g><g class="tick" opacity="1" transform="translate(0,56.799546130080415)"><line stroke="currentColor" x2="668.3500366210938"></line><text fill="currentColor" x="-3" dy="0.32em">2</text></g><g class="tick" opacity="1" transform="translate(0,1.8434236317962178)"><line stroke="currentColor" x2="668.3500366210938"></line><text fill="currentColor" x="-3" dy="0.32em">2.5</text></g></g><text class="x-axis-label" transform="translate(663.3500366210938,662.3500366210938)" style="text-anchor: end; font-size: 100%;">Axis 1 (5.95%)</text><text class="y-axis-label" transform="translate(5,6) rotate(-90)" dy=".71em" style="text-anchor: end; font-size: 100%;">Axis 2 (4.5%)</text><svg class="chart-body" width="668.3500366210938" height="668.3500366210938"><line transform="translate(122.1046759187447,384.8875974448372)" class="point-label-line label-line-EN_Attitude_type-Uncertain color color-cEN_Attitude_type symbol symbol-c" x1="9.105049568491669" x2="29.825881089389043" y1="-3.6480489012030555" y2="-11.950102184186505" style="stroke: rgb(214, 39, 40);"></line><path class="line" d="M0,276.62403612321737L668.3500366210938,276.62403612321737" style="stroke-width: 1px; stroke: rgb(0, 0, 0); stroke-dasharray: 5;"></path><path class="line" d="M135.7337942983192,0L135.7337942983192,668.3500366210938" style="stroke-width: 1px; stroke: rgb(0, 0, 0); stroke-dasharray: 5;"></path><path transform="translate(106.82687386422171,321.6880565718104)" d="M4.777216270826625,0A4.777216270826625,4.777216270826625,0,1,1,-4.777216270826625,0A4.777216270826625,4.777216270826625,0,1,1,4.777216270826625,0" class="dot symbol symbol-c color color-cDomain" style="fill: rgb(31, 119, 180); opacity: 1;"></path><path transform="translate(194.9764943514696,324.8755116767109)" d="M5.519889812530562,0A5.519889812530562,5.519889812530562,0,1,1,-5.519889812530562,0A5.519889812530562,5.519889812530562,0,1,1,5.519889812530562,0" class="dot symbol symbol-c color color-cDomain" style="fill: rgb(31, 119, 180); opacity: 1;"></path><path transform="translate(111.11345141908788,271.1284238733889)" d="M4.207557161102192,0A4.207557161102192,4.207557161102192,0,1,1,-4.207557161102192,0A4.207557161102192,4.207557161102192,0,1,1,4.207557161102192,0" class="dot symbol symbol-c color color-cDomain" style="fill: rgb(31, 119, 180); opacity: 1;"></path><path transform="translate(172.6643086171662,233.4285238395659)" d="M4.789758921614787,0A4.789758921614787,4.789758921614787,0,1,1,-4.789758921614787,0A4.789758921614787,4.789758921614787,0,1,1,4.789758921614787,0" class="dot symbol symbol-c color color-cDomain" style="fill: rgb(31, 119, 180); opacity: 1;"></path><path transform="translate(84.18495139492862,241.45211772431546)" d="M4.62005746090816,0A4.62005746090816,4.62005746090816,0,1,1,-4.62005746090816,0A4.62005746090816,4.62005746090816,0,1,1,4.62005746090816,0" class="dot symbol symbol-c color color-cDomain" style="fill: rgb(31, 119, 180); opacity: 1;"></path><path transform="translate(172.11474739218335,315.2032341170128)" d="M4.715470788468596,0A4.715470788468596,4.715470788468596,0,1,1,-4.715470788468596,0A4.715470788468596,4.715470788468596,0,1,1,4.715470788468596,0" class="dot symbol symbol-c color color-cDomain" style="fill: rgb(31, 119, 180); opacity: 1;"></path><path transform="translate(126.72099020860058,423.24697094863967)" d="M9.818684323461971,0A9.818684323461971,9.818684323461971,0,1,1,-9.818684323461971,0A9.818684323461971,9.818684323461971,0,1,1,9.818684323461971,0" class="dot symbol symbol-c color color-cDomain" style="fill: rgb(31, 119, 180); opacity: 1;"></path><path transform="translate(104.62862896429034,224.1958952598542)" d="M4.803710166055527,0A4.803710166055527,4.803710166055527,0,1,1,-4.803710166055527,0A4.803710166055527,4.803710166055527,0,1,1,4.803710166055527,0" class="dot symbol symbol-c color color-cDomain" style="fill: rgb(31, 119, 180); opacity: 1;"></path><path transform="translate(182.11676168687106,228.04282383473415)" d="M5.2849619611055845,0A5.2849619611055845,5.2849619611055845,0,1,1,-5.2849619611055845,0A5.2849619611055845,5.2849619611055845,0,1,1,5.2849619611055845,0" class="dot symbol symbol-c color color-cDomain" style="fill: rgb(31, 119, 180); opacity: 1;"></path><path transform="translate(104.51871671929376,154.29170744203665)" d="M8.042778412601125,0A8.042778412601125,8.042778412601125,0,1,1,-8.042778412601125,0A8.042778412601125,8.042778412601125,0,1,1,8.042778412601125,0" class="dot symbol symbol-c color color-cDomain" style="fill: rgb(31, 119, 180); opacity: 1;"></path><path transform="translate(99.57266569444819,229.1419462846998)" d="M4.869551222962762,0A4.869551222962762,4.869551222962762,0,1,1,-4.869551222962762,0A4.869551222962762,4.869551222962762,0,1,1,4.869551222962762,0" class="dot symbol symbol-c color color-cDomain" style="fill: rgb(31, 119, 180); opacity: 1;"></path><path transform="translate(611.8736396234536,236.17632996448012)" d="M14.92581651769006,0A14.92581651769006,14.92581651769006,0,1,1,-14.92581651769006,0A14.92581651769006,14.92581651769006,0,1,1,14.92581651769006,0" class="dot symbol symbol-c color color-cEN_Attitude_type" style="fill: rgb(214, 39, 40); opacity: 1;"></path><path transform="translate(113.31169631901925,260.24711161872864)" d="M5.503980913864526,0A5.503980913864526,5.503980913864526,0,1,1,-5.503980913864526,0A5.503980913864526,5.503980913864526,0,1,1,5.503980913864526,0" class="dot symbol symbol-c color color-cEN_Attitude_type" style="fill: rgb(214, 39, 40); opacity: 1;"></path><path transform="translate(113.0918718290261,366.31242804041716)" d="M7.21743727072477,0A7.21743727072477,7.21743727072477,0,1,1,-7.21743727072477,0A7.21743727072477,7.21743727072477,0,1,1,7.21743727072477,0" class="dot symbol symbol-c color color-cEN_Attitude_type" style="fill: rgb(214, 39, 40); opacity: 1;"></path><path transform="translate(122.1046759187447,384.8875974448372)" d="M4.297634308395612,0A4.297634308395612,4.297634308395612,0,1,1,-4.297634308395612,0A4.297634308395612,4.297634308395612,0,1,1,4.297634308395612,0" class="dot symbol symbol-c color color-cEN_Attitude_type" style="fill: rgb(214, 39, 40); opacity: 1;"></path><path transform="translate(121.1154657137756,190.45283604590762)" d="M10.108649446749258,0A10.108649446749258,10.108649446749258,0,1,1,-10.108649446749258,0A10.108649446749258,10.108649446749258,0,1,1,10.108649446749258,0" class="dot symbol symbol-c color color-cGender" style="fill: rgb(44, 160, 44); opacity: 1;"></path><path transform="translate(146.50519430798292,340.04340148623737)" d="M8.91918423282928,0A8.91918423282928,8.91918423282928,0,1,1,-8.91918423282928,0A8.91918423282928,8.91918423282928,0,1,1,8.91918423282928,0" class="dot symbol symbol-c color color-cGender" style="fill: rgb(44, 160, 44); opacity: 1;"></path><path transform="translate(105.28810243426975,242.99088915426742)" d="M4.619058404032923,0A4.619058404032923,4.619058404032923,0,1,1,-4.619058404032923,0A4.619058404032923,4.619058404032923,0,1,1,4.619058404032923,0" class="dot symbol symbol-c color color-cTranslation_strategy" style="fill: rgb(255, 127, 14); opacity: 1;"></path><path transform="translate(138.81133715822313,280.47096469809725)" d="M4.149571200386632,0A4.149571200386632,4.149571200386632,0,1,1,-4.149571200386632,0A4.149571200386632,4.149571200386632,0,1,1,4.149571200386632,0" class="dot symbol symbol-c color color-cTranslation_strategy" style="fill: rgb(255, 127, 14); opacity: 1;"></path><path transform="translate(165.52001269238923,215.40291566012874)" d="M4.150683262946491,0A4.150683262946491,4.150683262946491,0,1,1,-4.150683262946491,0A4.150683262946491,4.150683262946491,0,1,1,4.150683262946491,0" class="dot symbol symbol-c color color-cTranslation_strategy" style="fill: rgb(255, 127, 14); opacity: 1;"></path><path transform="translate(93.41757997464035,193.97002788579783)" d="M5.111387218275783,0A5.111387218275783,5.111387218275783,0,1,1,-5.111387218275783,0A5.111387218275783,5.111387218275783,0,1,1,5.111387218275783,0" class="dot symbol symbol-c color color-cadjective" style="fill: rgb(148, 103, 189); opacity: 1;"></path><path transform="translate(139.36089838320595,277.3934218381933)" d="M4.087941905733129,0A4.087941905733129,4.087941905733129,0,1,1,-4.087941905733129,0A4.087941905733129,4.087941905733129,0,1,1,4.087941905733129,0" class="dot symbol symbol-c color color-cadjective" style="fill: rgb(148, 103, 189); opacity: 1;"></path><path transform="translate(99.35284120445506,197.70704421568115)" d="M4.6295377483329805,0A4.6295377483329805,4.6295377483329805,0,1,1,-4.6295377483329805,0A4.6295377483329805,4.6295377483329805,0,1,1,4.6295377483329805,0" class="dot symbol symbol-c color color-cadjective" style="fill: rgb(148, 103, 189); opacity: 1;"></path><path transform="translate(107.59625957919768,402.36364439929156)" d="M4.811390087830449,0A4.811390087830449,4.811390087830449,0,1,1,-4.811390087830449,0A4.811390087830449,4.811390087830449,0,1,1,4.811390087830449,0" class="dot symbol symbol-c color color-cadjective" style="fill: rgb(148, 103, 189); opacity: 1;"></path><path transform="translate(113.64143305400894,208.69826871533806)" d="M5.910727385005597,0A5.910727385005597,5.910727385005597,0,1,1,-5.910727385005597,0A5.910727385005597,5.910727385005597,0,1,1,5.910727385005597,0" class="dot symbol symbol-c color color-cadjective" style="fill: rgb(148, 103, 189); opacity: 1;"></path><path transform="translate(107.37643508920455,240.79264425433604)" d="M4.221792568670342,0A4.221792568670342,4.221792568670342,0,1,1,-4.221792568670342,0A4.221792568670342,4.221792568670342,0,1,1,4.221792568670342,0" class="dot symbol symbol-c color color-cadjective" style="fill: rgb(148, 103, 189); opacity: 1;"></path><path transform="translate(98.91319222446879,318.61051371190644)" d="M4.198772921477708,0A4.198772921477708,4.198772921477708,0,1,1,-4.198772921477708,0A4.198772921477708,4.198772921477708,0,1,1,4.198772921477708,0" class="dot symbol symbol-c color color-cadjective" style="fill: rgb(148, 103, 189); opacity: 1;"></path><path transform="translate(104.62862896429034,249.3657993640684)" d="M4.127267025836645,0A4.127267025836645,4.127267025836645,0,1,1,-4.127267025836645,0A4.127267025836645,4.127267025836645,0,1,1,4.127267025836645,0" class="dot symbol symbol-c color color-cadjective" style="fill: rgb(148, 103, 189); opacity: 1;"></path><path transform="translate(91.32924731970556,130.66057476777448)" d="M4.738902236839696,0A4.738902236839696,4.738902236839696,0,1,1,-4.738902236839696,0A4.738902236839696,4.738902236839696,0,1,1,4.738902236839696,0" class="dot symbol symbol-c color color-cadjective" style="fill: rgb(148, 103, 189); opacity: 1;"></path><path transform="translate(117.708186118882,314.8734973820231)" d="M5.333640919202202,0A5.333640919202202,5.333640919202202,0,1,1,-5.333640919202202,0A5.333640919202202,5.333640919202202,0,1,1,5.333640919202202,0" class="dot symbol symbol-c color color-cadjective" style="fill: rgb(148, 103, 189); opacity: 1;"></path><path transform="translate(635.6146845427124,229.1419462846998)" d="M14.927053303604616,0A14.927053303604616,14.927053303604616,0,1,1,-14.927053303604616,0A14.927053303604616,14.927053303604616,0,1,1,14.927053303604616,0" class="dot symbol symbol-c color color-cadjective" style="fill: rgb(148, 103, 189); opacity: 1;"></path><path transform="translate(102.97994528934181,222.87694831989538)" d="M5.024877220757193,0A5.024877220757193,5.024877220757193,0,1,1,-5.024877220757193,0A5.024877220757193,5.024877220757193,0,1,1,5.024877220757193,0" class="dot symbol symbol-c color color-cadjective" style="fill: rgb(148, 103, 189); opacity: 1;"></path><path transform="translate(90.55986160472958,175.50477072637435)" d="M4.735005047665771,0A4.735005047665771,4.735005047665771,0,1,1,-4.735005047665771,0A4.735005047665771,4.735005047665771,0,1,1,4.735005047665771,0" class="dot symbol symbol-c color color-cadjective" style="fill: rgb(148, 103, 189); opacity: 1;"></path><path transform="translate(111.99274937906041,222.1075626049194)" d="M4.561244612150621,0A4.561244612150621,4.561244612150621,0,1,1,-4.561244612150621,0A4.561244612150621,4.561244612150621,0,1,1,4.561244612150621,0" class="dot symbol symbol-c color color-cadjective" style="fill: rgb(148, 103, 189); opacity: 1;"></path><path transform="translate(121.1154657137756,345.2092770010761)" d="M5.556971876978953,0A5.556971876978953,5.556971876978953,0,1,1,-5.556971876978953,0A5.556971876978953,5.556971876978953,0,1,1,5.556971876978953,0" class="dot symbol symbol-c color color-cadjective" style="fill: rgb(148, 103, 189); opacity: 1;"></path><path transform="translate(135.18423307333637,368.07102396036225)" d="M4.6419823126617805,0A4.6419823126617805,4.6419823126617805,0,1,1,-4.6419823126617805,0A4.6419823126617805,4.6419823126617805,0,1,1,4.6419823126617805,0" class="dot symbol symbol-c color color-cadjective" style="fill: rgb(148, 103, 189); opacity: 1;"></path><path transform="translate(108.9152065191565,388.514701529724)" d="M6.0458265447664274,0A6.0458265447664274,6.0458265447664274,0,1,1,-6.0458265447664274,0A6.0458265447664274,6.0458265447664274,0,1,1,6.0458265447664274,0" class="dot symbol symbol-c color color-cadjective" style="fill: rgb(148, 103, 189); opacity: 1;"></path><text text-anchor="middle" class="point-label color color-cDomain symbol symbol-c" transform="translate(106.82687386422171,321.6880565718104)" dx="-5.5852661416182485px" dy="20.835973570589942px" style="font-size: 10px; fill: rgb(31, 119, 180);">Art</text><text text-anchor="middle" class="point-label color color-cDomain symbol symbol-c" transform="translate(194.9764943514696,324.8755116767109)" dx="-1.3277880273393805px" dy="-11.532785823115148px" style="font-size: 10px; fill: rgb(31, 119, 180);">Bus</text><text text-anchor="middle" class="point-label color color-cDomain symbol symbol-c" transform="translate(111.11345141908788,271.1284238733889)" dx="-39.37136879289821px" dy="12.621107732825863px" style="font-size: 10px; fill: rgb(31, 119, 180);">Edu</text><text text-anchor="middle" class="point-label color color-cDomain symbol symbol-c" transform="translate(172.6643086171662,233.4285238395659)" dx="3.9254770628137408px" dy="18.312114918605005px" style="font-size: 10px; fill: rgb(31, 119, 180);">Ent</text><text text-anchor="middle" class="point-label color color-cDomain symbol symbol-c" transform="translate(84.18495139492862,241.45211772431546)" dx="-39.235856332789055px" dy="-19.32345819876832px" style="font-size: 10px; fill: rgb(31, 119, 180);">His</text><text text-anchor="middle" class="point-label color color-cDomain symbol symbol-c" transform="translate(172.11474739218335,315.2032341170128)" dx="-18.588742020523853px" dy="9.621680350123995px" style="font-size: 10px; fill: rgb(31, 119, 180);">Med</text><text text-anchor="middle" class="point-label color color-cDomain symbol symbol-c" transform="translate(126.72099020860058,423.24697094863967)" dx="15.097550045183056px" dy="8.430718449550739px" style="font-size: 10px; fill: rgb(31, 119, 180);">Phi</text><text text-anchor="middle" class="point-label color color-cDomain symbol symbol-c" transform="translate(104.62862896429034,224.1958952598542)" dx="-37.387215485592506px" dy="21.62429115513646px" style="font-size: 10px; fill: rgb(31, 119, 180);">Pol</text><text text-anchor="middle" class="point-label color color-cDomain symbol symbol-c" transform="translate(182.11676168687106,228.04282383473415)" dx="16.79999072938682px" dy="-5.251265792604727px" style="font-size: 10px; fill: rgb(31, 119, 180);">Psy</text><text text-anchor="middle" class="point-label color color-cDomain symbol symbol-c" transform="translate(104.51871671929376,154.29170744203665)" dx="4.801451450704988px" dy="-10.928635367645512px" style="font-size: 10px; fill: rgb(31, 119, 180);">Sci</text><text text-anchor="middle" class="point-label color color-cDomain symbol symbol-c" transform="translate(99.57266569444819,229.1419462846998)" dx="-62.75020833295207px" dy="6.873518504433832px" style="font-size: 10px; fill: rgb(31, 119, 180);">Tech</text><text text-anchor="middle" class="point-label color color-cEN_Attitude_type symbol symbol-c" transform="translate(611.8736396234536,236.17632996448012)" dx="-11.511248703628098px" dy="-10.560762697376845px" style="font-size: 10px; fill: rgb(214, 39, 40);">Affect</text><text text-anchor="middle" class="point-label color color-cEN_Attitude_type symbol symbol-c" transform="translate(113.31169631901925,260.24711161872864)" dx="-7.1048015390744865px" dy="44.15735846913316px" style="font-size: 10px; fill: rgb(214, 39, 40);">Appreciation</text><text text-anchor="middle" class="point-label color color-cEN_Attitude_type symbol symbol-c" transform="translate(113.0918718290261,366.31242804041716)" dx="-37.40227485462023px" dy="-0.8847749245722412px" style="font-size: 10px; fill: rgb(214, 39, 40);">Judgement</text><text text-anchor="middle" class="point-label color color-cEN_Attitude_type symbol symbol-c" transform="translate(122.1046759187447,384.8875974448372)" dx="56.24404629629822px" dy="-9.150102231870221px" style="font-size: 10px; fill: rgb(214, 39, 40);">Uncertain</text><text text-anchor="middle" class="point-label color color-cGender symbol symbol-c" transform="translate(121.1154657137756,190.45283604590762)" dx="-11.999529168058913px" dy="-5.834816661033244px" style="font-size: 10px; fill: rgb(44, 160, 44);">F</text><text text-anchor="middle" class="point-label color color-cGender symbol symbol-c" transform="translate(146.50519430798292,340.04340148623737)" dx="17.928700592305916px" dy="5.353343441267896px" style="font-size: 10px; fill: rgb(44, 160, 44);">M</text><text text-anchor="middle" class="point-label color color-cTranslation_strategy symbol symbol-c" transform="translate(105.28810243426975,242.99088915426742)" dx="67.52815147750839px" dy="41.07969481289433px" style="font-size: 10px; fill: rgb(255, 127, 14);">Alteration</text><text text-anchor="middle" class="point-label color color-cTranslation_strategy symbol symbol-c" transform="translate(138.81133715822313,280.47096469809725)" dx="70.85642166197013px" dy="-16.608662776584026px" style="font-size: 10px; fill: rgb(255, 127, 14);">Equivalence</text><text text-anchor="middle" class="point-label color color-cTranslation_strategy symbol symbol-c" transform="translate(165.52001269238923,215.40291566012874)" dx="14.737818364578828px" dy="-30.150297196629992px" style="font-size: 10px; fill: rgb(255, 127, 14);">Translation_strategy.NA</text><text text-anchor="middle" class="point-label color color-cadjective symbol symbol-c" transform="translate(93.41757997464035,193.97002788579783)" dx="-26.466632881296604px" dy="4.184998701130951px" style="font-size: 10px; fill: rgb(148, 103, 189);">amazing</text><text text-anchor="middle" class="point-label color color-cadjective symbol symbol-c" transform="translate(139.36089838320595,277.3934218381933)" dx="7.5830998223094355px" dy="20.55847015696986px" style="font-size: 10px; fill: rgb(148, 103, 189);">bad</text><text text-anchor="middle" class="point-label color color-cadjective symbol symbol-c" transform="translate(99.35284120445506,197.70704421568115)" dx="-21.929486630516678px" dy="16.26771607818847px" style="font-size: 10px; fill: rgb(148, 103, 189);">beautiful</text><text text-anchor="middle" class="point-label color color-cadjective symbol symbol-c" transform="translate(107.59625957919768,402.36364439929156)" dx="-8.750104556096915px" dy="20.11920754890707px" style="font-size: 10px; fill: rgb(148, 103, 189);">creative</text><text text-anchor="middle" class="point-label color color-cadjective symbol symbol-c" transform="translate(113.64143305400894,208.69826871533806)" dx="26.045211773975538px" dy="50.60048616302089px" style="font-size: 10px; fill: rgb(148, 103, 189);">different</text><text text-anchor="middle" class="point-label color color-cadjective symbol symbol-c" transform="translate(107.37643508920455,240.79264425433604)" dx="27.954533431657964px" dy="-2.0163217716666963px" style="font-size: 10px; fill: rgb(148, 103, 189);">difficult</text><text text-anchor="middle" class="point-label color color-cadjective symbol symbol-c" transform="translate(98.91319222446879,318.61051371190644)" dx="-37.9187286100417px" dy="14.129554392220086px" style="font-size: 10px; fill: rgb(148, 103, 189);">extraordinary</text><text text-anchor="middle" class="point-label color color-cadjective symbol symbol-c" transform="translate(104.62862896429034,249.3657993640684)" dx="-0.7648000555416132px" dy="38.146391247476686px" style="font-size: 10px; fill: rgb(148, 103, 189);">fantastic</text><text text-anchor="middle" class="point-label color color-cadjective symbol symbol-c" transform="translate(91.32924731970556,130.66057476777448)" dx="-1.7586259253219652px" dy="-9.92010231164673px" style="font-size: 10px; fill: rgb(148, 103, 189);">fascinating</text><text text-anchor="middle" class="point-label color color-cadjective symbol symbol-c" transform="translate(117.708186118882,314.8734973820231)" dx="4.883402294421984px" dy="17.77907782034964px" style="font-size: 10px; fill: rgb(148, 103, 189);">good</text><text text-anchor="middle" class="point-label color color-cadjective symbol symbol-c" transform="translate(635.6146845427124,229.1419462846998)" dx="7.171138358358917px" dy="-9.146049746815322px" style="font-size: 10px; fill: rgb(148, 103, 189);">happy</text><text text-anchor="middle" class="point-label color color-cadjective symbol symbol-c" transform="translate(102.97994528934181,222.87694831989538)" dx="-31.88110934720011px" dy="37.03504924593062px" style="font-size: 10px; fill: rgb(148, 103, 189);">important</text><text text-anchor="middle" class="point-label color color-cadjective symbol symbol-c" transform="translate(90.55986160472958,175.50477072637435)" dx="-19.685020595492517px" dy="-9.071243927197429px" style="font-size: 10px; fill: rgb(148, 103, 189);">incredible</text><text text-anchor="middle" class="point-label color color-cadjective symbol symbol-c" transform="translate(111.99274937906041,222.1075626049194)" dx="45.03676117168227px" dy="-17.780721223418595px" style="font-size: 10px; fill: rgb(148, 103, 189);">interesting</text><text text-anchor="middle" class="point-label color color-cadjective symbol symbol-c" transform="translate(121.1154657137756,345.2092770010761)" dx="28.757048601521532px" dy="40.354772675127435px" style="font-size: 10px; fill: rgb(148, 103, 189);">right</text><text text-anchor="middle" class="point-label color color-cadjective symbol symbol-c" transform="translate(135.18423307333637,368.07102396036225)" dx="10.24975551110552px" dy="35.10875735466544px" style="font-size: 10px; fill: rgb(148, 103, 189);">wonderful</text><text text-anchor="middle" class="point-label color color-cadjective symbol symbol-c" transform="translate(108.9152065191565,388.514701529724)" dx="-22.261661988416378px" dy="-1.087018797925225px" style="font-size: 10px; fill: rgb(148, 103, 189);">wrong</text></svg></g><defs><marker id="arrow-head-explor_var-#1f77b4" markerWidth="10" markerHeight="10" refX="10" refY="4" orient="auto"><path d="M0,0 L0,8 L10,4 L0,0" style="fill: rgb(31, 119, 180);"></path></marker><marker id="arrow-head-explor_var-#d62728" markerWidth="10" markerHeight="10" refX="10" refY="4" orient="auto"><path d="M0,0 L0,8 L10,4 L0,0" style="fill: rgb(214, 39, 40);"></path></marker><marker id="arrow-head-explor_var-#2ca02c" markerWidth="10" markerHeight="10" refX="10" refY="4" orient="auto"><path d="M0,0 L0,8 L10,4 L0,0" style="fill: rgb(44, 160, 44);"></path></marker><marker id="arrow-head-explor_var-#ff7f0e" markerWidth="10" markerHeight="10" refX="10" refY="4" orient="auto"><path d="M0,0 L0,8 L10,4 L0,0" style="fill: rgb(255, 127, 14);"></path></marker><marker id="arrow-head-explor_var-#9467bd" markerWidth="10" markerHeight="10" refX="10" refY="4" orient="auto"><path d="M0,0 L0,8 L10,4 L0,0" style="fill: rgb(148, 103, 189);"></path></marker><marker id="arrow-head-explor_var-#8c564b" markerWidth="10" markerHeight="10" refX="10" refY="4" orient="auto"><path d="M0,0 L0,8 L10,4 L0,0" style="fill: rgb(140, 86, 75);"></path></marker><marker id="arrow-head-explor_var-#e377c2" markerWidth="10" markerHeight="10" refX="10" refY="4" orient="auto"><path d="M0,0 L0,8 L10,4 L0,0" style="fill: rgb(227, 119, 194);"></path></marker><marker id="arrow-head-explor_var-#7f7f7f" markerWidth="10" markerHeight="10" refX="10" refY="4" orient="auto"><path d="M0,0 L0,8 L10,4 L0,0" style="fill: rgb(127, 127, 127);"></path></marker><marker id="arrow-head-explor_var-#bcbd22" markerWidth="10" markerHeight="10" refX="10" refY="4" orient="auto"><path d="M0,0 L0,8 L10,4 L0,0" style="fill: rgb(188, 189, 34);"></path></marker><marker id="arrow-head-explor_var-#17becf" markerWidth="10" markerHeight="10" refX="10" refY="4" orient="auto"><path d="M0,0 L0,8 L10,4 L0,0" style="fill: rgb(23, 190, 207);"></path></marker></defs><g class="legend" style="font-size: 100%;"><g class="color-legend-label" transform="translate(722.3500366210938, 50)"><text style="fill: rgb(0, 0, 0); font-weight: bold;">Variable</text></g><g class="color-legend" transform="translate(722.3500366210938, 62)"><g class="legendCells"><g class="cell" transform="translate(0, 0)"><rect class="swatch" height="15" width="15" style="fill: rgb(31, 119, 180);"></rect><text class="label" transform="translate( 25, 12.5)">Domain</text></g><g class="cell" transform="translate(0, 18)"><rect class="swatch" height="15" width="15" style="fill: rgb(214, 39, 40);"></rect><text class="label" transform="translate( 25, 12.5)">EN_Attitude_type</text></g><g class="cell" transform="translate(0, 36)"><rect class="swatch" height="15" width="15" style="fill: rgb(44, 160, 44);"></rect><text class="label" transform="translate( 25, 12.5)">Gender</text></g><g class="cell" transform="translate(0, 54)"><rect class="swatch" height="15" width="15" style="fill: rgb(255, 127, 14);"></rect><text class="label" transform="translate( 25, 12.5)">Translation_strategy</text></g><g class="cell" transform="translate(0, 72)"><rect class="swatch" height="15" width="15" style="fill: rgb(148, 103, 189);"></rect><text class="label" transform="translate( 25, 12.5)">adjective</text></g></g></g><g><text class="size-legend-label" transform="translate(722.3500366210938, 180)" style="fill: rgb(0, 0, 0); font-weight: bold; opacity: 1;">Contrib</text></g><g class="size-legend" transform="translate(730.3500366210938, 194)" style="opacity: 1;"><g class="legendCells"><g class="cell" transform="translate(0, 4.025382041931152)"><circle class="swatch" r="4.025382429497066"></circle><text class="label" transform="translate( 24.698617935180664,
          5)">0.0</text></g><g class="cell" transform="translate(0, 18.22538185119629)"><circle class="swatch" r="6.693691420823619"></circle><text class="label" transform="translate( 24.698617935180664,
          5)">11.2</text></g><g class="cell" transform="translate(0, 34.61276435852051)"><circle class="swatch" r="9.362000412150174"></circle><text class="label" transform="translate( 24.698617935180664,
          5)">22.3</text></g><g class="cell" transform="translate(0, 56.33676528930664)"><circle class="swatch" r="12.030309403476727"></circle><text class="label" transform="translate( 24.698617935180664,
          5)">33.5</text></g><g class="cell" transform="translate(0, 83.39738464355469)"><circle class="swatch" r="14.69861839480328"></circle><text class="label" transform="translate( 24.698617935180664,
          5)">44.7</text></g></g></g></g></svg>