<svg width="1237.3250732421875" height="693.3500366210938" class="scatterD3" id="scatterD3-svg-explor_var" xmlns="http://www.w3.org/2000/svg" version="1.1"><style>.scatterD3 {font: 11px Open Sans, Droid Sans, Helvetica, Verdana, sans-serif;}.scatterD3 .axis line, .axis path { stroke: #000; fill: none; shape-rendering: CrispEdges;} .scatterD3 .axis .tick line { stroke: #ddd;} .scatterD3 .axis text { fill: #000; }</style><g class="root" transform="translate(30,5)" width="668.3500366210938" height="668.3500366210938" style="cursor: move;"><rect class="viewport" width="668.3500366210938" height="668.3500366210938" style="fill: rgb(255, 255, 255);"></rect><g class="x axis" transform="translate(0,668.3500366210938)" fill="none" font-size="10" font-family="sans-serif" text-anchor="middle" style="font-size: 100%;"><path class="domain" stroke="currentColor" d="M0,-668.3500366210938V0H668.3500366210938V-668.3500366210938"></path><g class="tick" opacity="1" transform="translate(27.78414807866449,0)"><line stroke="currentColor" y2="-668.3500366210938"></line><text fill="currentColor" y="3" dy="0.71em">−3</text></g><g class="tick" opacity="1" transform="translate(76.83808183336869,0)"><line stroke="currentColor" y2="-668.3500366210938"></line><text fill="currentColor" y="3" dy="0.71em">−2.5</text></g><g class="tick" opacity="1" transform="translate(125.8920155880729,0)"><line stroke="currentColor" y2="-668.3500366210938"></line><text fill="currentColor" y="3" dy="0.71em">−2</text></g><g class="tick" opacity="1" transform="translate(174.94594934277708,0)"><line stroke="currentColor" y2="-668.3500366210938"></line><text fill="currentColor" y="3" dy="0.71em">−1.5</text></g><g class="tick" opacity="1" transform="translate(223.99988309748127,0)"><line stroke="currentColor" y2="-668.3500366210938"></line><text fill="currentColor" y="3" dy="0.71em">−1</text></g><g class="tick" opacity="1" transform="translate(273.0538168521855,0)"><line stroke="currentColor" y2="-668.3500366210938"></line><text fill="currentColor" y="3" dy="0.71em">−0.5</text></g><g class="tick" opacity="1" transform="translate(322.1077506068897,0)"><line stroke="currentColor" y2="-668.3500366210938"></line><text fill="currentColor" y="3" dy="0.71em">0</text></g><g class="tick" opacity="1" transform="translate(371.16168436159387,0)"><line stroke="currentColor" y2="-668.3500366210938"></line><text fill="currentColor" y="3" dy="0.71em">0.5</text></g><g class="tick" opacity="1" transform="translate(420.21561811629806,0)"><line stroke="currentColor" y2="-668.3500366210938"></line><text fill="currentColor" y="3" dy="0.71em">1</text></g><g class="tick" opacity="1" transform="translate(469.26955187100225,0)"><line stroke="currentColor" y2="-668.3500366210938"></line><text fill="currentColor" y="3" dy="0.71em">1.5</text></g><g class="tick" opacity="1" transform="translate(518.3234856257064,0)"><line stroke="currentColor" y2="-668.3500366210938"></line><text fill="currentColor" y="3" dy="0.71em">2</text></g><g class="tick" opacity="1" transform="translate(567.3774193804107,0)"><line stroke="currentColor" y2="-668.3500366210938"></line><text fill="currentColor" y="3" dy="0.71em">2.5</text></g><g class="tick" opacity="1" transform="translate(616.4313531351149,0)"><line stroke="currentColor" y2="-668.3500366210938"></line><text fill="currentColor" y="3" dy="0.71em">3</text></g><g class="tick" opacity="1" transform="translate(665.4852868898191,0)"><line stroke="currentColor" y2="-668.3500366210938"></line><text fill="currentColor" y="3" dy="0.71em">3.5</text></g></g><g class="y axis" fill="none" font-size="10" font-family="sans-serif" text-anchor="end" style="font-size: 100%;"><path class="domain" stroke="currentColor" d="M668.3500366210938,668.3500366210938H0V0H668.3500366210938"></path><g class="tick" opacity="1" transform="translate(0,653.7123427886901)"><line stroke="currentColor" x2="668.3500366210938"></line><text fill="currentColor" x="-3" dy="0.32em">−2</text></g><g class="tick" opacity="1" transform="translate(0,604.6584090339859)"><line stroke="currentColor" x2="668.3500366210938"></line><text fill="currentColor" x="-3" dy="0.32em">−1.5</text></g><g class="tick" opacity="1" transform="translate(0,555.6044752792816)"><line stroke="currentColor" x2="668.3500366210938"></line><text fill="currentColor" x="-3" dy="0.32em">−1</text></g><g class="tick" opacity="1" transform="translate(0,506.55054152457745)"><line stroke="currentColor" x2="668.3500366210938"></line><text fill="currentColor" x="-3" dy="0.32em">−0.5</text></g><g class="tick" opacity="1" transform="translate(0,457.4966077698732)"><line stroke="currentColor" x2="668.3500366210938"></line><text fill="currentColor" x="-3" dy="0.32em">0</text></g><g class="tick" opacity="1" transform="translate(0,408.442674015169)"><line stroke="currentColor" x2="668.3500366210938"></line><text fill="currentColor" x="-3" dy="0.32em">0.5</text></g><g class="tick" opacity="1" transform="translate(0,359.38874026046483)"><line stroke="currentColor" x2="668.3500366210938"></line><text fill="currentColor" x="-3" dy="0.32em">1</text></g><g class="tick" opacity="1" transform="translate(0,310.33480650576064)"><line stroke="currentColor" x2="668.3500366210938"></line><text fill="currentColor" x="-3" dy="0.32em">1.5</text></g><g class="tick" opacity="1" transform="translate(0,261.2808727510564)"><line stroke="currentColor" x2="668.3500366210938"></line><text fill="currentColor" x="-3" dy="0.32em">2</text></g><g class="tick" opacity="1" transform="translate(0,212.2269389963522)"><line stroke="currentColor" x2="668.3500366210938"></line><text fill="currentColor" x="-3" dy="0.32em">2.5</text></g><g class="tick" opacity="1" transform="translate(0,163.173005241648)"><line stroke="currentColor" x2="668.3500366210938"></line><text fill="currentColor" x="-3" dy="0.32em">3</text></g><g class="tick" opacity="1" transform="translate(0,114.11907148694381)"><line stroke="currentColor" x2="668.3500366210938"></line><text fill="currentColor" x="-3" dy="0.32em">3.5</text></g><g class="tick" opacity="1" transform="translate(0,65.06513773223962)"><line stroke="currentColor" x2="668.3500366210938"></line><text fill="currentColor" x="-3" dy="0.32em">4</text></g><g class="tick" opacity="1" transform="translate(0,16.01120397753543)"><line stroke="currentColor" x2="668.3500366210938"></line><text fill="currentColor" x="-3" dy="0.32em">4.5</text></g></g><text class="x-axis-label" transform="translate(663.3500366210938,662.3500366210938)" style="text-anchor: end; font-size: 100%;">Axis 1 (4.98%)</text><text class="y-axis-label" transform="translate(5,6) rotate(-90)" dy=".71em" style="text-anchor: end; font-size: 100%;">Axis 2 (4.62%)</text><svg class="chart-body" width="668.3500366210938" height="668.3500366210938"><path class="line" d="M0,457.4966077698732L668.3500366210938,457.4966077698732" style="stroke-width: 1px; stroke: rgb(0, 0, 0); stroke-dasharray: 5;"></path><path class="line" d="M322.1077506068897,0L322.1077506068897,668.3500366210938" style="stroke-width: 1px; stroke: rgb(0, 0, 0); stroke-dasharray: 5;"></path><path transform="translate(282.86460360312634,358.9963087904272)" d="M8.161466367748597,0A8.161466367748597,8.161466367748597,0,1,1,-8.161466367748597,0A8.161466367748597,8.161466367748597,0,1,1,8.161466367748597,0" class="dot symbol symbol-c color color-cDomain" style="fill: rgb(31, 119, 180); opacity: 1;"></path><path transform="translate(278.1554259626747,507.0410808621245)" d="M6.061104542605615,0A6.061104542605615,6.061104542605615,0,1,1,-6.061104542605615,0A6.061104542605615,6.061104542605615,0,1,1,6.061104542605615,0" class="dot symbol symbol-c color color-cDomain" style="fill: rgb(31, 119, 180); opacity: 1;"></path><path transform="translate(331.91853735783053,412.9556359206018)" d="M4.835259236285373,0A4.835259236285373,4.835259236285373,0,1,1,-4.835259236285373,0A4.835259236285373,4.835259236285373,0,1,1,4.835259236285373,0" class="dot symbol symbol-c color color-cDomain" style="fill: rgb(31, 119, 180); opacity: 1;"></path><path transform="translate(337.90311727590444,392.84352308117315)" d="M5.728277851485464,0A5.728277851485464,5.728277851485464,0,1,1,-5.728277851485464,0A5.728277851485464,5.728277851485464,0,1,1,5.728277851485464,0" class="dot symbol symbol-c color color-cDomain" style="fill: rgb(31, 119, 180); opacity: 1;"></path><path transform="translate(358.9963087904272,369.29763487891506)" d="M6.440033896394162,0A6.440033896394162,6.440033896394162,0,1,1,-6.440033896394162,0A6.440033896394162,6.440033896394162,0,1,1,6.440033896394162,0" class="dot symbol symbol-c color color-cDomain" style="fill: rgb(31, 119, 180); opacity: 1;"></path><path transform="translate(275.21218993739245,551.4839448438865)" d="M7.86030440572493,0A7.86030440572493,7.86030440572493,0,1,1,-7.86030440572493,0A7.86030440572493,7.86030440572493,0,1,1,7.86030440572493,0" class="dot symbol symbol-c color color-cDomain" style="fill: rgb(31, 119, 180); opacity: 1;"></path><path transform="translate(199.669131955148,526.8588700990249)" d="M12.42267528690383,0A12.42267528690383,12.42267528690383,0,1,1,-12.42267528690383,0A12.42267528690383,12.42267528690383,0,1,1,12.42267528690383,0" class="dot symbol symbol-c color color-cDomain" style="fill: rgb(31, 119, 180); opacity: 1;"></path><path transform="translate(374.791675459442,477.2162891392643)" d="M5.074607815763953,0A5.074607815763953,5.074607815763953,0,1,1,-5.074607815763953,0A5.074607815763953,5.074607815763953,0,1,1,5.074607815763953,0" class="dot symbol symbol-c color color-cDomain" style="fill: rgb(31, 119, 180); opacity: 1;"></path><path transform="translate(354.6795626200132,428.5547868545978)" d="M4.944742763727475,0A4.944742763727475,4.944742763727475,0,1,1,-4.944742763727475,0A4.944742763727475,4.944742763727475,0,1,1,4.944742763727475,0" class="dot symbol symbol-c color color-cDomain" style="fill: rgb(31, 119, 180); opacity: 1;"></path><path transform="translate(440.81827029327377,475.940886861642)" d="M9.871392864959633,0A9.871392864959633,9.871392864959633,0,1,1,-9.871392864959633,0A9.871392864959633,9.871392864959633,0,1,1,9.871392864959633,0" class="dot symbol symbol-c color color-cDomain" style="fill: rgb(31, 119, 180); opacity: 1;"></path><path transform="translate(369.4938506139339,447.7839288864418)" d="M4.92964393746482,0A4.92964393746482,4.92964393746482,0,1,1,-4.92964393746482,0A4.92964393746482,4.92964393746482,0,1,1,4.92964393746482,0" class="dot symbol symbol-c color color-cDomain" style="fill: rgb(31, 119, 180); opacity: 1;"></path><path transform="translate(210.5591052486923,572.8714599609375)" d="M5.168555244050316,0A5.168555244050316,5.168555244050316,0,1,1,-5.168555244050316,0A5.168555244050316,5.168555244050316,0,1,1,5.168555244050316,0" class="dot symbol symbol-c color color-cEN_Attitude_type" style="fill: rgb(214, 39, 40); opacity: 1;"></path><path transform="translate(338.98230381850794,483.69140839488523)" d="M7.4595254647164415,0A7.4595254647164415,7.4595254647164415,0,1,1,-7.4595254647164415,0A7.4595254647164415,7.4595254647164415,0,1,1,7.4595254647164415,0" class="dot symbol symbol-c color color-cEN_Attitude_type" style="fill: rgb(214, 39, 40); opacity: 1;"></path><path transform="translate(247.34955556472048,320.2437011242109)" d="M14.927053303604616,0A14.927053303604616,14.927053303604616,0,1,1,-14.927053303604616,0A14.927053303604616,14.927053303604616,0,1,1,14.927053303604616,0" class="dot symbol symbol-c color color-cEN_Attitude_type" style="fill: rgb(214, 39, 40); opacity: 1;"></path><path transform="translate(239.79524976649603,472.40900363130334)" d="M4.087941905733129,0A4.087941905733129,4.087941905733129,0,1,1,-4.087941905733129,0A4.087941905733129,4.087941905733129,0,1,1,4.087941905733129,0" class="dot symbol symbol-c color color-cEN_Attitude_type" style="fill: rgb(214, 39, 40); opacity: 1;"></path><path transform="translate(400.1035052768694,428.5547868545978)" d="M12.662840095817536,0A12.662840095817536,12.662840095817536,0,1,1,-12.662840095817536,0A12.662840095817536,12.662840095817536,0,1,1,12.662840095817536,0" class="dot symbol symbol-c color color-cGender" style="fill: rgb(44, 160, 44); opacity: 1;"></path><path transform="translate(263.83167730630106,479.1784464894524)" d="M11.114954458141025,0A11.114954458141025,11.114954458141025,0,1,1,-11.114954458141025,0A11.114954458141025,11.114954458141025,0,1,1,11.114954458141025,0" class="dot symbol symbol-c color color-cGender" style="fill: rgb(44, 160, 44); opacity: 1;"></path><path transform="translate(383.1308441977417,351.8344344622404)" d="M7.035472839383258,0A7.035472839383258,7.035472839383258,0,1,1,-7.035472839383258,0A7.035472839383258,7.035472839383258,0,1,1,7.035472839383258,0" class="dot symbol symbol-c color color-cadjective" style="fill: rgb(255, 127, 14); opacity: 1;"></path><path transform="translate(310.62913010828885,502.82244255921984)" d="M4.99383793350132,0A4.99383793350132,4.99383793350132,0,1,1,-4.99383793350132,0A4.99383793350132,4.99383793350132,0,1,1,4.99383793350132,0" class="dot symbol symbol-c color color-cadjective" style="fill: rgb(255, 127, 14); opacity: 1;"></path><path transform="translate(395.5905433714366,363.5092706958601)" d="M5.782442504116787,0A5.782442504116787,5.782442504116787,0,1,1,-5.782442504116787,0A5.782442504116787,5.782442504116787,0,1,1,5.782442504116787,0" class="dot symbol symbol-c color color-cadjective" style="fill: rgb(255, 127, 14); opacity: 1;"></path><path transform="translate(217.72097957687913,95.47857666015628)" d="M11.374704149996678,0A11.374704149996678,11.374704149996678,0,1,1,-11.374704149996678,0A11.374704149996678,11.374704149996678,0,1,1,11.374704149996678,0" class="dot symbol symbol-c color color-cadjective" style="fill: rgb(255, 127, 14); opacity: 1;"></path><path transform="translate(385.4854330179675,496.4454311711084)" d="M7.368116552362162,0A7.368116552362162,7.368116552362162,0,1,1,-7.368116552362162,0A7.368116552362162,7.368116552362162,0,1,1,7.368116552362162,0" class="dot symbol symbol-c color color-cadjective" style="fill: rgb(255, 127, 14); opacity: 1;"></path><path transform="translate(355.07199409005085,560.7060843897708)" d="M5.398156264662221,0A5.398156264662221,5.398156264662221,0,1,1,-5.398156264662221,0A5.398156264662221,5.398156264662221,0,1,1,5.398156264662221,0" class="dot symbol symbol-c color color-cadjective" style="fill: rgb(255, 127, 14); opacity: 1;"></path><path transform="translate(270.89544376697853,398.82810299924705)" d="M4.334166393653506,0A4.334166393653506,4.334166393653506,0,1,1,-4.334166393653506,0A4.334166393653506,4.334166393653506,0,1,1,4.334166393653506,0" class="dot symbol symbol-c color color-cadjective" style="fill: rgb(255, 127, 14); opacity: 1;"></path><path transform="translate(345.65363880914765,344.8687758690724)" d="M4.59229158461514,0A4.59229158461514,4.59229158461514,0,1,1,-4.59229158461514,0A4.59229158461514,4.59229158461514,0,1,1,4.59229158461514,0" class="dot symbol symbol-c color color-cadjective" style="fill: rgb(255, 127, 14); opacity: 1;"></path><path transform="translate(468.68090466594583,451.4139199842899)" d="M5.01212464141379,0A5.01212464141379,5.01212464141379,0,1,1,-5.01212464141379,0A5.01212464141379,5.01212464141379,0,1,1,5.01212464141379,0" class="dot symbol symbol-c color color-cadjective" style="fill: rgb(255, 127, 14); opacity: 1;"></path><path transform="translate(289.3397228587473,437.87503426799157)" d="M5.858125760226581,0A5.858125760226581,5.858125760226581,0,1,1,-5.858125760226581,0A5.858125760226581,5.858125760226581,0,1,1,5.858125760226581,0" class="dot symbol symbol-c color color-cadjective" style="fill: rgb(255, 127, 14); opacity: 1;"></path><path transform="translate(379.10842162985597,510.769179827482)" d="M6.528867315379565,0A6.528867315379565,6.528867315379565,0,1,1,-6.528867315379565,0A6.528867315379565,6.528867315379565,0,1,1,6.528867315379565,0" class="dot symbol symbol-c color color-cadjective" style="fill: rgb(255, 127, 14); opacity: 1;"></path><path transform="translate(413.34806739063947,429.63397339720126)" d="M4.821223290735147,0A4.821223290735147,4.821223290735147,0,1,1,-4.821223290735147,0A4.821223290735147,4.821223290735147,0,1,1,4.821223290735147,0" class="dot symbol symbol-c color color-cadjective" style="fill: rgb(255, 127, 14); opacity: 1;"></path><path transform="translate(374.1049203868761,548.3444930835855)" d="M6.446344646734253,0A6.446344646734253,6.446344646734253,0,1,1,-6.446344646734253,0A6.446344646734253,6.446344646734253,0,1,1,6.446344646734253,0" class="dot symbol symbol-c color color-cadjective" style="fill: rgb(255, 127, 14); opacity: 1;"></path><path transform="translate(264.0278930413199,497.03407837616476)" d="M6.5516632789189275,0A6.5516632789189275,6.5516632789189275,0,1,1,-6.5516632789189275,0A6.5516632789189275,6.5516632789189275,0,1,1,6.5516632789189275,0" class="dot symbol symbol-c color color-cadjective" style="fill: rgb(255, 127, 14); opacity: 1;"></path><path transform="translate(236.85201374121377,417.17427422350636)" d="M4.972759155488528,0A4.972759155488528,4.972759155488528,0,1,1,-4.972759155488528,0A4.972759155488528,4.972759155488528,0,1,1,4.972759155488528,0" class="dot symbol symbol-c color color-cadjective" style="fill: rgb(255, 127, 14); opacity: 1;"></path><path transform="translate(240.7763284415901,384.7005700778922)" d="M7.105441891485579,0A7.105441891485579,7.105441891485579,0,1,1,-7.105441891485579,0A7.105441891485579,7.105441891485579,0,1,1,7.105441891485579,0" class="dot symbol symbol-c color color-cadjective" style="fill: rgb(255, 127, 14); opacity: 1;"></path><text text-anchor="middle" class="point-label color color-cDomain symbol symbol-c" transform="translate(282.86460360312634,358.9963087904272)" dx="0.14813336044312564px" dy="-9.391456203299981px" style="font-size: 10px; fill: rgb(31, 119, 180);">Art</text><text text-anchor="middle" class="point-label color color-cDomain symbol symbol-c" transform="translate(278.1554259626747,507.0410808621245)" dx="-9.00386953509394px" dy="23.028858679215034px" style="font-size: 10px; fill: rgb(31, 119, 180);">Bus</text><text text-anchor="middle" class="point-label color color-cDomain symbol symbol-c" transform="translate(331.91853735783053,412.9556359206018)" dx="-17.773812303788873px" dy="-2.841276629167737px" style="font-size: 10px; fill: rgb(31, 119, 180);">Edu</text><text text-anchor="middle" class="point-label color color-cDomain symbol symbol-c" transform="translate(337.90311727590444,392.84352308117315)" dx="0.6248868321030159px" dy="-10.12280099047615px" style="font-size: 10px; fill: rgb(31, 119, 180);">Ent</text><text text-anchor="middle" class="point-label color color-cDomain symbol symbol-c" transform="translate(358.9963087904272,369.29763487891506)" dx="6.059941115940433px" dy="-10.431993800276587px" style="font-size: 10px; fill: rgb(31, 119, 180);">His</text><text text-anchor="middle" class="point-label color color-cDomain symbol symbol-c" transform="translate(275.21218993739245,551.4839448438865)" dx="-16.382347955851344px" dy="2.225968244380624px" style="font-size: 10px; fill: rgb(31, 119, 180);">Med</text><text text-anchor="middle" class="point-label color color-cDomain symbol symbol-c" transform="translate(199.669131955148,526.8588700990249)" dx="1.807978258148836px" dy="-10.549523259133935px" style="font-size: 10px; fill: rgb(31, 119, 180);">Phi</text><text text-anchor="middle" class="point-label color color-cDomain symbol symbol-c" transform="translate(374.791675459442,477.2162891392643)" dx="14.893864978007855px" dy="-1.6943447826826628px" style="font-size: 10px; fill: rgb(31, 119, 180);">Pol</text><text text-anchor="middle" class="point-label color color-cDomain symbol symbol-c" transform="translate(354.6795626200132,428.5547868545978)" dx="0.8369076232385737px" dy="-8.678747135754122px" style="font-size: 10px; fill: rgb(31, 119, 180);">Psy</text><text text-anchor="middle" class="point-label color color-cDomain symbol symbol-c" transform="translate(440.81827029327377,475.940886861642)" dx="0.14122954878149585px" dy="-12.674750050284217px" style="font-size: 10px; fill: rgb(31, 119, 180);">Sci</text><text text-anchor="middle" class="point-label color color-cDomain symbol symbol-c" transform="translate(369.4938506139339,447.7839288864418)" dx="-1.7675514159506633px" dy="18.12461631795702px" style="font-size: 10px; fill: rgb(31, 119, 180);">Tech</text><text text-anchor="middle" class="point-label color color-cEN_Attitude_type symbol symbol-c" transform="translate(210.5591052486923,572.8714599609375)" dx="-1.4309776762833906px" dy="-8.473347134194796px" style="font-size: 10px; fill: rgb(214, 39, 40);">Affect</text><text text-anchor="middle" class="point-label color color-cEN_Attitude_type symbol symbol-c" transform="translate(338.98230381850794,483.69140839488523)" dx="-12.118611138179517px" dy="-10.318569591645428px" style="font-size: 10px; fill: rgb(214, 39, 40);">Appreciation</text><text text-anchor="middle" class="point-label color color-cEN_Attitude_type symbol symbol-c" transform="translate(247.34955556472048,320.2437011242109)" dx="-1.1580903785126395px" dy="-8.72235413856248px" style="font-size: 10px; fill: rgb(214, 39, 40);">Judgement</text><text text-anchor="middle" class="point-label color color-cEN_Attitude_type symbol symbol-c" transform="translate(239.79524976649603,472.40900363130334)" dx="-2.8422924722876246px" dy="-10.189967964525238px" style="font-size: 10px; fill: rgb(214, 39, 40);">Uncertain</text><text text-anchor="middle" class="point-label color color-cGender symbol symbol-c" transform="translate(400.1035052768694,428.5547868545978)" dx="-14.962259091575618px" dy="-0.028563872698043724px" style="font-size: 10px; fill: rgb(44, 160, 44);">F</text><text text-anchor="middle" class="point-label color color-cGender symbol symbol-c" transform="translate(263.83167730630106,479.1784464894524)" dx="3.4996442031786614px" dy="-9.013133172798462px" style="font-size: 10px; fill: rgb(44, 160, 44);">M</text><text text-anchor="middle" class="point-label color color-cadjective symbol symbol-c" transform="translate(383.1308441977417,351.8344344622404)" dx="3.9773090728458556px" dy="-9.536289013000498px" style="font-size: 10px; fill: rgb(255, 127, 14);">amazing</text><text text-anchor="middle" class="point-label color color-cadjective symbol symbol-c" transform="translate(310.62913010828885,502.82244255921984)" dx="3.569565212730197px" dy="-9.107853211321185px" style="font-size: 10px; fill: rgb(255, 127, 14);">bad</text><text text-anchor="middle" class="point-label color color-cadjective symbol symbol-c" transform="translate(395.5905433714366,363.5092706958601)" dx="2.1732175941626792px" dy="21.85955704670198px" style="font-size: 10px; fill: rgb(255, 127, 14);">beautiful</text><text text-anchor="middle" class="point-label color color-cadjective symbol symbol-c" transform="translate(217.72097957687913,95.47857666015628)" dx="9.521204055613879px" dy="-8.492734685989149px" style="font-size: 10px; fill: rgb(255, 127, 14);">creative</text><text text-anchor="middle" class="point-label color color-cadjective symbol symbol-c" transform="translate(385.4854330179675,496.4454311711084)" dx="17.844881979771174px" dy="-6.171114562084028px" style="font-size: 10px; fill: rgb(255, 127, 14);">different</text><text text-anchor="middle" class="point-label color color-cadjective symbol symbol-c" transform="translate(355.07199409005085,560.7060843897708)" dx="-26.25749028470767px" dy="-0.9279723527400847px" style="font-size: 10px; fill: rgb(255, 127, 14);">difficult</text><text text-anchor="middle" class="point-label color color-cadjective symbol symbol-c" transform="translate(270.89544376697853,398.82810299924705)" dx="14.443305145443219px" dy="-8.861570486437927px" style="font-size: 10px; fill: rgb(255, 127, 14);">extraordinary</text><text text-anchor="middle" class="point-label color color-cadjective symbol symbol-c" transform="translate(345.65363880914765,344.8687758690724)" dx="-6.3772320782463225px" dy="-9.211489179416901px" style="font-size: 10px; fill: rgb(255, 127, 14);">fantastic</text><text text-anchor="middle" class="point-label color color-cadjective symbol symbol-c" transform="translate(468.68090466594583,451.4139199842899)" dx="-6.827397875813574px" dy="-8.779734171337395px" style="font-size: 10px; fill: rgb(255, 127, 14);">fascinating</text><text text-anchor="middle" class="point-label color color-cadjective symbol symbol-c" transform="translate(289.3397228587473,437.87503426799157)" dx="9.4891967469664px" dy="-9.489210904996014px" style="font-size: 10px; fill: rgb(255, 127, 14);">good</text><text text-anchor="middle" class="point-label color color-cadjective symbol symbol-c" transform="translate(379.10842162985597,510.769179827482)" dx="-30.02870251093583px" dy="-7.279903416721822px" style="font-size: 10px; fill: rgb(255, 127, 14);">important</text><text text-anchor="middle" class="point-label color color-cadjective symbol symbol-c" transform="translate(413.34806739063947,429.63397339720126)" dx="-0.6083678848669365px" dy="-15.65500382172246px" style="font-size: 10px; fill: rgb(255, 127, 14);">incredible</text><text text-anchor="middle" class="point-label color color-cadjective symbol symbol-c" transform="translate(374.1049203868761,548.3444930835855)" dx="2.574401411536371px" dy="-9.038780601345024px" style="font-size: 10px; fill: rgb(255, 127, 14);">interesting</text><text text-anchor="middle" class="point-label color color-cadjective symbol symbol-c" transform="translate(264.0278930413199,497.03407837616476)" dx="23.467233431079308px" dy="-4.830933700333674px" style="font-size: 10px; fill: rgb(255, 127, 14);">right</text><text text-anchor="middle" class="point-label color color-cadjective symbol symbol-c" transform="translate(236.85201374121377,417.17427422350636)" dx="3.1735117389822847px" dy="-9.304024274090409px" style="font-size: 10px; fill: rgb(255, 127, 14);">wonderful</text><text text-anchor="middle" class="point-label color color-cadjective symbol symbol-c" transform="translate(240.7763284415901,384.7005700778922)" dx="3.8010150832308796px" dy="-8.524484603958172px" style="font-size: 10px; fill: rgb(255, 127, 14);">wrong</text></svg></g><defs><marker id="arrow-head-explor_var-#1f77b4" markerWidth="10" markerHeight="10" refX="10" refY="4" orient="auto"><path d="M0,0 L0,8 L10,4 L0,0" style="fill: rgb(31, 119, 180);"></path></marker><marker id="arrow-head-explor_var-#d62728" markerWidth="10" markerHeight="10" refX="10" refY="4" orient="auto"><path d="M0,0 L0,8 L10,4 L0,0" style="fill: rgb(214, 39, 40);"></path></marker><marker id="arrow-head-explor_var-#2ca02c" markerWidth="10" markerHeight="10" refX="10" refY="4" orient="auto"><path d="M0,0 L0,8 L10,4 L0,0" style="fill: rgb(44, 160, 44);"></path></marker><marker id="arrow-head-explor_var-#ff7f0e" markerWidth="10" markerHeight="10" refX="10" refY="4" orient="auto"><path d="M0,0 L0,8 L10,4 L0,0" style="fill: rgb(255, 127, 14);"></path></marker><marker id="arrow-head-explor_var-#9467bd" markerWidth="10" markerHeight="10" refX="10" refY="4" orient="auto"><path d="M0,0 L0,8 L10,4 L0,0" style="fill: rgb(148, 103, 189);"></path></marker><marker id="arrow-head-explor_var-#8c564b" markerWidth="10" markerHeight="10" refX="10" refY="4" orient="auto"><path d="M0,0 L0,8 L10,4 L0,0" style="fill: rgb(140, 86, 75);"></path></marker><marker id="arrow-head-explor_var-#e377c2" markerWidth="10" markerHeight="10" refX="10" refY="4" orient="auto"><path d="M0,0 L0,8 L10,4 L0,0" style="fill: rgb(227, 119, 194);"></path></marker><marker id="arrow-head-explor_var-#7f7f7f" markerWidth="10" markerHeight="10" refX="10" refY="4" orient="auto"><path d="M0,0 L0,8 L10,4 L0,0" style="fill: rgb(127, 127, 127);"></path></marker><marker id="arrow-head-explor_var-#bcbd22" markerWidth="10" markerHeight="10" refX="10" refY="4" orient="auto"><path d="M0,0 L0,8 L10,4 L0,0" style="fill: rgb(188, 189, 34);"></path></marker><marker id="arrow-head-explor_var-#17becf" markerWidth="10" markerHeight="10" refX="10" refY="4" orient="auto"><path d="M0,0 L0,8 L10,4 L0,0" style="fill: rgb(23, 190, 207);"></path></marker></defs><g class="legend" style="font-size: 100%;"><g class="color-legend-label" transform="translate(722.3500366210938, 50)"><text style="fill: rgb(0, 0, 0); font-weight: bold;">Variable</text></g><g class="color-legend" transform="translate(722.3500366210938, 62)"><g class="legendCells"><g class="cell" transform="translate(0, 0)"><rect class="swatch" height="15" width="15" style="fill: rgb(31, 119, 180);"></rect><text class="label" transform="translate( 25, 12.5)">Domain</text></g><g class="cell" transform="translate(0, 18)"><rect class="swatch" height="15" width="15" style="fill: rgb(214, 39, 40);"></rect><text class="label" transform="translate( 25, 12.5)">EN_Attitude_type</text></g><g class="cell" transform="translate(0, 36)"><rect class="swatch" height="15" width="15" style="fill: rgb(44, 160, 44);"></rect><text class="label" transform="translate( 25, 12.5)">Gender</text></g><g class="cell" transform="translate(0, 54)"><rect class="swatch" height="15" width="15" style="fill: rgb(255, 127, 14);"></rect><text class="label" transform="translate( 25, 12.5)">adjective</text></g></g></g><g><text class="size-legend-label" transform="translate(722.3500366210938, 160)" style="fill: rgb(0, 0, 0); font-weight: bold; opacity: 1;">Contrib</text></g><g class="size-legend" transform="translate(730.3500366210938, 174)" style="opacity: 1;"><g class="legendCells"><g class="cell" transform="translate(0, 4.025382041931152)"><circle class="swatch" r="4.025382429497066"></circle><text class="label" transform="translate( 24.698617935180664,
          5)">0.3</text></g><g class="cell" transform="translate(0, 18.22538185119629)"><circle class="swatch" r="6.693691420823619"></circle><text class="label" transform="translate( 24.698617935180664,
          5)">7.9</text></g><g class="cell" transform="translate(0, 34.61276435852051)"><circle class="swatch" r="9.362000412150174"></circle><text class="label" transform="translate( 24.698617935180664,
          5)">15.5</text></g><g class="cell" transform="translate(0, 56.33676528930664)"><circle class="swatch" r="12.030309403476727"></circle><text class="label" transform="translate( 24.698617935180664,
          5)">23.1</text></g><g class="cell" transform="translate(0, 83.39738464355469)"><circle class="swatch" r="14.69861839480328"></circle><text class="label" transform="translate( 24.698617935180664,
          5)">30.7</text></g></g></g></g></svg>